<?xml version="1.0" encoding="UTF-8" standalone="no"?>
<!DOCTYPE svg PUBLIC "-//W3C//DTD SVG 1.1//EN"
 "http://www.w3.org/Graphics/SVG/1.1/DTD/svg11.dtd">
<!-- Generated by graphviz version 2.44.0 (0)
 -->
<!-- Title: G Pages: 1 -->
<svg width="1405pt" height="791pt"
 viewBox="0.00 0.00 1405.00 791.00" xmlns="http://www.w3.org/2000/svg" xmlns:xlink="http://www.w3.org/1999/xlink">
<g id="graph0" class="graph" transform="scale(1 1) rotate(0) translate(4 787)">
<title>G</title>
<polygon fill="white" stroke="transparent" points="-4,4 -4,-787 1401,-787 1401,4 -4,4"/>
<g id="clust1" class="cluster">
<title>cluster_module.ec2_security_group_module</title>
<polygon fill="none" stroke="black" points="237,-517 237,-592 503,-592 503,-517 237,-517"/>
<text text-anchor="middle" x="370" y="-576.8" font-family="sans-serif" font-size="14.00">module.ec2_security_group_module</text>
</g>
<g id="clust2" class="cluster">
<title>cluster_module.ls_security_group_module</title>
<polygon fill="none" stroke="black" points="244,-343 244,-418 496,-418 496,-343 244,-343"/>
<text text-anchor="middle" x="370" y="-402.8" font-family="sans-serif" font-size="14.00">module.ls_security_group_module</text>
</g>
<g id="clust3" class="cluster">
<title>cluster_module.private_ec2_module</title>
<polygon fill="none" stroke="black" points="565,-700 565,-775 777,-775 777,-700 565,-700"/>
<text text-anchor="middle" x="671" y="-759.8" font-family="sans-serif" font-size="14.00">module.private_ec2_module</text>
</g>
<g id="clust4" class="cluster">
<title>cluster_module.private_lb</title>
<polygon fill="none" stroke="black" points="617,-480 617,-609 1389,-609 1389,-480 617,-480"/>
<text text-anchor="middle" x="1003" y="-593.8" font-family="sans-serif" font-size="14.00">module.private_lb</text>
</g>
<g id="clust5" class="cluster">
<title>cluster_module.public_ec2_module</title>
<polygon fill="none" stroke="black" points="569,-617 569,-692 774,-692 774,-617 569,-617"/>
<text text-anchor="middle" x="671.5" y="-676.8" font-family="sans-serif" font-size="14.00">module.public_ec2_module</text>
</g>
<g id="clust6" class="cluster">
<title>cluster_module.public_lb_module</title>
<polygon fill="none" stroke="black" points="617,-343 617,-472 1389,-472 1389,-343 617,-343"/>
<text text-anchor="middle" x="1003" y="-456.8" font-family="sans-serif" font-size="14.00">module.public_lb_module</text>
</g>
<g id="clust7" class="cluster">
<title>cluster_module.vpc_module</title>
<polygon fill="none" stroke="black" points="40,-44 40,-335 1367,-335 1367,-44 40,-44"/>
<text text-anchor="middle" x="703.5" y="-319.8" font-family="sans-serif" font-size="14.00">module.vpc_module</text>
</g>
<!-- data.aws_ami.amazon_linux -->
<g id="node1" class="node">
<title>data.aws_ami.amazon_linux</title>
<polygon fill="none" stroke="black" points="1349,-36 1138,-36 1138,0 1349,0 1349,-36"/>
<text text-anchor="middle" x="1243.5" y="-14.3" font-family="sans-serif" font-size="14.00">data.aws_ami.amazon_linux</text>
</g>
<!-- data.aws_ami.ubuntu -->
<g id="node2" class="node">
<title>data.aws_ami.ubuntu</title>
<polygon fill="none" stroke="black" points="453.5,-744 287.5,-744 287.5,-708 453.5,-708 453.5,-744"/>
<text text-anchor="middle" x="370.5" y="-722.3" font-family="sans-serif" font-size="14.00">data.aws_ami.ubuntu</text>
</g>
<!-- aws_key_pair.key_pair -->
<g id="node3" class="node">
<title>aws_key_pair.key_pair</title>
<polygon fill="none" stroke="black" points="455,-690 286,-690 286,-654 455,-654 455,-690"/>
<text text-anchor="middle" x="370.5" y="-668.3" font-family="sans-serif" font-size="14.00">aws_key_pair.key_pair</text>
</g>
<!-- tls_private_key.private_key -->
<g id="node8" class="node">
<title>tls_private_key.private_key</title>
<polygon fill="none" stroke="black" points="201,-663 0,-663 0,-627 201,-627 201,-663"/>
<text text-anchor="middle" x="100.5" y="-641.3" font-family="sans-serif" font-size="14.00">tls_private_key.private_key</text>
</g>
<!-- aws_key_pair.key_pair&#45;&gt;tls_private_key.private_key -->
<g id="edge1" class="edge">
<title>aws_key_pair.key_pair&#45;&gt;tls_private_key.private_key</title>
<path fill="none" stroke="black" d="M285.81,-663.57C262.32,-661.2 236.42,-658.59 211.64,-656.1"/>
<polygon fill="black" stroke="black" points="211.78,-652.59 201.48,-655.07 211.08,-659.56 211.78,-652.59"/>
</g>
<!-- local_file.private_key -->
<g id="node4" class="node">
<title>local_file.private_key</title>
<polygon fill="none" stroke="black" points="450.5,-636 290.5,-636 290.5,-600 450.5,-600 450.5,-636"/>
<text text-anchor="middle" x="370.5" y="-614.3" font-family="sans-serif" font-size="14.00">local_file.private_key</text>
</g>
<!-- local_file.private_key&#45;&gt;tls_private_key.private_key -->
<g id="edge2" class="edge">
<title>local_file.private_key&#45;&gt;tls_private_key.private_key</title>
<path fill="none" stroke="black" d="M290.18,-625.99C265.41,-628.49 237.62,-631.29 211.15,-633.95"/>
<polygon fill="black" stroke="black" points="210.68,-630.48 201.08,-634.97 211.38,-637.45 210.68,-630.48"/>
</g>
<!-- null_resource.install&#45;proxy -->
<g id="node5" class="node">
<title>null_resource.install&#45;proxy</title>
<polygon fill="none" stroke="black" points="1342.5,-653 1144.5,-653 1144.5,-617 1342.5,-617 1342.5,-653"/>
<text text-anchor="middle" x="1243.5" y="-631.3" font-family="sans-serif" font-size="14.00">null_resource.install&#45;proxy</text>
</g>
<!-- null_resource.save_instance_ip -->
<g id="node7" class="node">
<title>null_resource.save_instance_ip</title>
<polygon fill="none" stroke="black" points="1070,-700 840,-700 840,-664 1070,-664 1070,-700"/>
<text text-anchor="middle" x="955" y="-678.3" font-family="sans-serif" font-size="14.00">null_resource.save_instance_ip</text>
</g>
<!-- null_resource.install&#45;proxy&#45;&gt;null_resource.save_instance_ip -->
<g id="edge3" class="edge">
<title>null_resource.install&#45;proxy&#45;&gt;null_resource.save_instance_ip</title>
<path fill="none" stroke="black" d="M1144.3,-651.11C1122.29,-654.72 1098.7,-658.59 1075.92,-662.33"/>
<polygon fill="black" stroke="black" points="1075.16,-658.9 1065.86,-663.98 1076.3,-665.81 1075.16,-658.9"/>
</g>
<!-- module.private_lb.aws_lb.this -->
<g id="node12" class="node">
<title>module.private_lb.aws_lb.this</title>
<polygon fill="none" stroke="black" points="718,-524 625,-524 625,-488 718,-488 718,-524"/>
<text text-anchor="middle" x="671.5" y="-502.3" font-family="sans-serif" font-size="14.00">aws_lb.this</text>
</g>
<!-- null_resource.install&#45;proxy&#45;&gt;module.private_lb.aws_lb.this -->
<g id="edge4" class="edge">
<title>null_resource.install&#45;proxy&#45;&gt;module.private_lb.aws_lb.this</title>
<path fill="none" stroke="black" d="M1144.28,-620.16C1131.37,-617.92 1118.35,-615.51 1106,-613 969.1,-585.12 810.09,-543.46 727.96,-521.24"/>
<polygon fill="black" stroke="black" points="728.66,-517.81 718.1,-518.57 726.83,-524.56 728.66,-517.81"/>
</g>
<!-- null_resource.install_apache -->
<g id="node6" class="node">
<title>null_resource.install_apache</title>
<polygon fill="none" stroke="black" points="1349,-707 1138,-707 1138,-671 1349,-671 1349,-707"/>
<text text-anchor="middle" x="1243.5" y="-685.3" font-family="sans-serif" font-size="14.00">null_resource.install_apache</text>
</g>
<!-- null_resource.install_apache&#45;&gt;null_resource.save_instance_ip -->
<g id="edge5" class="edge">
<title>null_resource.install_apache&#45;&gt;null_resource.save_instance_ip</title>
<path fill="none" stroke="black" d="M1137.85,-686.44C1119.07,-685.98 1099.32,-685.5 1080.05,-685.03"/>
<polygon fill="black" stroke="black" points="1080.11,-681.53 1070.03,-684.79 1079.94,-688.53 1080.11,-681.53"/>
</g>
<!-- module.private_ec2_module.aws_instance.this -->
<g id="node11" class="node">
<title>module.private_ec2_module.aws_instance.this</title>
<polygon fill="none" stroke="black" points="741,-744 602,-744 602,-708 741,-708 741,-744"/>
<text text-anchor="middle" x="671.5" y="-722.3" font-family="sans-serif" font-size="14.00">aws_instance.this</text>
</g>
<!-- null_resource.save_instance_ip&#45;&gt;module.private_ec2_module.aws_instance.this -->
<g id="edge6" class="edge">
<title>null_resource.save_instance_ip&#45;&gt;module.private_ec2_module.aws_instance.this</title>
<path fill="none" stroke="black" d="M839.91,-699.83C810.05,-704.5 778.52,-709.43 750.98,-713.73"/>
<polygon fill="black" stroke="black" points="750.37,-710.29 741.03,-715.29 751.45,-717.2 750.37,-710.29"/>
</g>
<!-- module.public_ec2_module.aws_instance.this -->
<g id="node16" class="node">
<title>module.public_ec2_module.aws_instance.this</title>
<polygon fill="none" stroke="black" points="741,-661 602,-661 602,-625 741,-625 741,-661"/>
<text text-anchor="middle" x="671.5" y="-639.3" font-family="sans-serif" font-size="14.00">aws_instance.this</text>
</g>
<!-- null_resource.save_instance_ip&#45;&gt;module.public_ec2_module.aws_instance.this -->
<g id="edge7" class="edge">
<title>null_resource.save_instance_ip&#45;&gt;module.public_ec2_module.aws_instance.this</title>
<path fill="none" stroke="black" d="M839.91,-666.19C810.05,-662.06 778.52,-657.69 750.98,-653.87"/>
<polygon fill="black" stroke="black" points="751.41,-650.4 741.03,-652.49 750.45,-657.33 751.41,-650.4"/>
</g>
<!-- module.ec2_security_group_module.aws_security_group.this -->
<g id="node9" class="node">
<title>module.ec2_security_group_module.aws_security_group.this</title>
<polygon fill="none" stroke="black" points="462,-561 279,-561 279,-525 462,-525 462,-561"/>
<text text-anchor="middle" x="370.5" y="-539.3" font-family="sans-serif" font-size="14.00">aws_security_group.this</text>
</g>
<!-- module.vpc_module.aws_vpc.this -->
<g id="node32" class="node">
<title>module.vpc_module.aws_vpc.this</title>
<polygon fill="none" stroke="black" points="153,-250 48,-250 48,-214 153,-214 153,-250"/>
<text text-anchor="middle" x="100.5" y="-228.3" font-family="sans-serif" font-size="14.00">aws_vpc.this</text>
</g>
<!-- module.ec2_security_group_module.aws_security_group.this&#45;&gt;module.vpc_module.aws_vpc.this -->
<g id="edge8" class="edge">
<title>module.ec2_security_group_module.aws_security_group.this&#45;&gt;module.vpc_module.aws_vpc.this</title>
<path fill="none" stroke="black" d="M346.58,-524.63C319.03,-501.99 272.12,-461.64 237,-422 188.99,-367.82 141.99,-296.71 117.98,-258.7"/>
<polygon fill="black" stroke="black" points="120.94,-256.83 112.66,-250.22 115.01,-260.55 120.94,-256.83"/>
</g>
<!-- module.ls_security_group_module.aws_security_group.this -->
<g id="node10" class="node">
<title>module.ls_security_group_module.aws_security_group.this</title>
<polygon fill="none" stroke="black" points="462,-387 279,-387 279,-351 462,-351 462,-387"/>
<text text-anchor="middle" x="370.5" y="-365.3" font-family="sans-serif" font-size="14.00">aws_security_group.this</text>
</g>
<!-- module.ls_security_group_module.aws_security_group.this&#45;&gt;module.vpc_module.aws_vpc.this -->
<g id="edge9" class="edge">
<title>module.ls_security_group_module.aws_security_group.this&#45;&gt;module.vpc_module.aws_vpc.this</title>
<path fill="none" stroke="black" d="M278.93,-354.19C264.54,-350.23 250.09,-345.25 237,-339 193.86,-318.4 151.88,-281.93 126.35,-257.37"/>
<polygon fill="black" stroke="black" points="128.58,-254.64 118.98,-250.16 123.68,-259.65 128.58,-254.64"/>
</g>
<!-- module.private_ec2_module.aws_instance.this&#45;&gt;data.aws_ami.ubuntu -->
<g id="edge10" class="edge">
<title>module.private_ec2_module.aws_instance.this&#45;&gt;data.aws_ami.ubuntu</title>
<path fill="none" stroke="black" d="M601.9,-726C560.96,-726 508.42,-726 463.86,-726"/>
<polygon fill="black" stroke="black" points="463.6,-722.5 453.6,-726 463.6,-729.5 463.6,-722.5"/>
</g>
<!-- module.private_ec2_module.aws_instance.this&#45;&gt;aws_key_pair.key_pair -->
<g id="edge11" class="edge">
<title>module.private_ec2_module.aws_instance.this&#45;&gt;aws_key_pair.key_pair</title>
<path fill="none" stroke="black" d="M601.9,-713.61C561.35,-706.29 509.43,-696.91 465.15,-688.91"/>
<polygon fill="black" stroke="black" points="465.7,-685.46 455.24,-687.12 464.46,-692.35 465.7,-685.46"/>
</g>
<!-- module.private_ec2_module.aws_instance.this&#45;&gt;module.ec2_security_group_module.aws_security_group.this -->
<g id="edge12" class="edge">
<title>module.private_ec2_module.aws_instance.this&#45;&gt;module.ec2_security_group_module.aws_security_group.this</title>
<path fill="none" stroke="black" d="M601.9,-723.42C579.57,-719.42 556.15,-711.42 539,-696 502.32,-663.01 537.54,-626.23 503,-591 492.32,-580.11 478.98,-571.67 464.92,-565.15"/>
<polygon fill="black" stroke="black" points="466.16,-561.87 455.59,-561.12 463.39,-568.3 466.16,-561.87"/>
</g>
<!-- module.vpc_module.aws_subnet.private&#45;subnet -->
<g id="node30" class="node">
<title>module.vpc_module.aws_subnet.private&#45;subnet</title>
<polygon fill="none" stroke="black" points="473,-304 268,-304 268,-268 473,-268 473,-304"/>
<text text-anchor="middle" x="370.5" y="-282.3" font-family="sans-serif" font-size="14.00">aws_subnet.private&#45;subnet</text>
</g>
<!-- module.private_ec2_module.aws_instance.this&#45;&gt;module.vpc_module.aws_subnet.private&#45;subnet -->
<g id="edge13" class="edge">
<title>module.private_ec2_module.aws_instance.this&#45;&gt;module.vpc_module.aws_subnet.private&#45;subnet</title>
<path fill="none" stroke="black" d="M601.82,-725.87C578.66,-722.22 554.73,-713.81 539,-696 486.21,-636.24 550.88,-402.76 503,-339 493.09,-325.8 479.34,-315.87 464.45,-308.42"/>
<polygon fill="black" stroke="black" points="465.6,-305.1 455.05,-304.09 462.67,-311.45 465.6,-305.1"/>
</g>
<!-- module.private_lb.aws_lb.this&#45;&gt;module.ls_security_group_module.aws_security_group.this -->
<g id="edge14" class="edge">
<title>module.private_lb.aws_lb.this&#45;&gt;module.ls_security_group_module.aws_security_group.this</title>
<path fill="none" stroke="black" d="M624.88,-499.57C599.01,-494.95 566.43,-487.48 539,-476 487.72,-454.54 434.65,-417.71 402.35,-393.36"/>
<polygon fill="black" stroke="black" points="404.27,-390.43 394.2,-387.15 400.03,-396 404.27,-390.43"/>
</g>
<!-- module.private_lb.aws_lb.this&#45;&gt;module.vpc_module.aws_subnet.private&#45;subnet -->
<g id="edge15" class="edge">
<title>module.private_lb.aws_lb.this&#45;&gt;module.vpc_module.aws_subnet.private&#45;subnet</title>
<path fill="none" stroke="black" d="M624.73,-506.92C596.52,-505.02 561.55,-497.82 539,-476 493.76,-432.22 544.62,-386.23 503,-339 491.3,-325.72 475.8,-315.72 459.56,-308.21"/>
<polygon fill="black" stroke="black" points="460.5,-304.8 449.94,-304.06 457.74,-311.23 460.5,-304.8"/>
</g>
<!-- module.private_lb.aws_lb_listener.this -->
<g id="node13" class="node">
<title>module.private_lb.aws_lb_listener.this</title>
<polygon fill="none" stroke="black" points="1318.5,-524 1168.5,-524 1168.5,-488 1318.5,-488 1318.5,-524"/>
<text text-anchor="middle" x="1243.5" y="-502.3" font-family="sans-serif" font-size="14.00">aws_lb_listener.this</text>
</g>
<!-- module.private_lb.aws_lb_target_group.this -->
<g id="node14" class="node">
<title>module.private_lb.aws_lb_target_group.this</title>
<polygon fill="none" stroke="black" points="1049,-524 861,-524 861,-488 1049,-488 1049,-524"/>
<text text-anchor="middle" x="955" y="-502.3" font-family="sans-serif" font-size="14.00">aws_lb_target_group.this</text>
</g>
<!-- module.private_lb.aws_lb_listener.this&#45;&gt;module.private_lb.aws_lb_target_group.this -->
<g id="edge16" class="edge">
<title>module.private_lb.aws_lb_listener.this&#45;&gt;module.private_lb.aws_lb_target_group.this</title>
<path fill="none" stroke="black" d="M1168.35,-506C1135.08,-506 1095.28,-506 1059.17,-506"/>
<polygon fill="black" stroke="black" points="1059.09,-502.5 1049.09,-506 1059.09,-509.5 1059.09,-502.5"/>
</g>
<!-- module.private_lb.aws_lb_target_group.this&#45;&gt;module.private_lb.aws_lb.this -->
<g id="edge17" class="edge">
<title>module.private_lb.aws_lb_target_group.this&#45;&gt;module.private_lb.aws_lb.this</title>
<path fill="none" stroke="black" d="M860.66,-506C816.92,-506 766.26,-506 728.53,-506"/>
<polygon fill="black" stroke="black" points="728.25,-502.5 718.25,-506 728.25,-509.5 728.25,-502.5"/>
</g>
<!-- module.private_lb.aws_lb_target_group_attachment.this -->
<g id="node15" class="node">
<title>module.private_lb.aws_lb_target_group_attachment.this</title>
<polygon fill="none" stroke="black" points="1381,-578 1106,-578 1106,-542 1381,-542 1381,-578"/>
<text text-anchor="middle" x="1243.5" y="-556.3" font-family="sans-serif" font-size="14.00">aws_lb_target_group_attachment.this</text>
</g>
<!-- module.private_lb.aws_lb_target_group_attachment.this&#45;&gt;module.private_ec2_module.aws_instance.this -->
<g id="edge18" class="edge">
<title>module.private_lb.aws_lb_target_group_attachment.this&#45;&gt;module.private_ec2_module.aws_instance.this</title>
<path fill="none" stroke="black" d="M1105.99,-571.18C1024.13,-582.82 920.62,-606.56 840,-655 819.21,-667.49 824.83,-683.59 804,-696 787.97,-705.55 769.18,-712.06 750.9,-716.5"/>
<polygon fill="black" stroke="black" points="750.1,-713.09 741.11,-718.7 751.64,-719.92 750.1,-713.09"/>
</g>
<!-- module.private_lb.aws_lb_target_group_attachment.this&#45;&gt;module.private_lb.aws_lb_target_group.this -->
<g id="edge19" class="edge">
<title>module.private_lb.aws_lb_target_group_attachment.this&#45;&gt;module.private_lb.aws_lb_target_group.this</title>
<path fill="none" stroke="black" d="M1146.7,-541.94C1118.62,-536.65 1087.79,-530.84 1059.26,-525.46"/>
<polygon fill="black" stroke="black" points="1059.75,-521.99 1049.28,-523.58 1058.45,-528.87 1059.75,-521.99"/>
</g>
<!-- module.public_ec2_module.aws_instance.this&#45;&gt;data.aws_ami.ubuntu -->
<g id="edge20" class="edge">
<title>module.public_ec2_module.aws_instance.this&#45;&gt;data.aws_ami.ubuntu</title>
<path fill="none" stroke="black" d="M621.5,-661.11C588.36,-672.94 543.42,-688.14 503,-699 490.36,-702.4 476.93,-705.61 463.67,-708.54"/>
<polygon fill="black" stroke="black" points="462.61,-705.19 453.58,-710.73 464.09,-712.03 462.61,-705.19"/>
</g>
<!-- module.public_ec2_module.aws_instance.this&#45;&gt;aws_key_pair.key_pair -->
<g id="edge21" class="edge">
<title>module.public_ec2_module.aws_instance.this&#45;&gt;aws_key_pair.key_pair</title>
<path fill="none" stroke="black" d="M601.9,-649.65C561.44,-653.58 509.65,-658.6 465.43,-662.89"/>
<polygon fill="black" stroke="black" points="464.86,-659.43 455.24,-663.88 465.53,-666.4 464.86,-659.43"/>
</g>
<!-- module.public_ec2_module.aws_instance.this&#45;&gt;module.ec2_security_group_module.aws_security_group.this -->
<g id="edge22" class="edge">
<title>module.public_ec2_module.aws_instance.this&#45;&gt;module.ec2_security_group_module.aws_security_group.this</title>
<path fill="none" stroke="black" d="M601.97,-631.76C581.3,-627.21 558.85,-621.08 539,-613 521.63,-605.93 519.89,-599.14 503,-591 482.4,-581.07 459.18,-571.95 438.05,-564.4"/>
<polygon fill="black" stroke="black" points="439.1,-561.06 428.5,-561.04 436.77,-567.66 439.1,-561.06"/>
</g>
<!-- module.vpc_module.aws_subnet.public&#45;subnet -->
<g id="node31" class="node">
<title>module.vpc_module.aws_subnet.public&#45;subnet</title>
<polygon fill="none" stroke="black" points="469.5,-250 271.5,-250 271.5,-214 469.5,-214 469.5,-250"/>
<text text-anchor="middle" x="370.5" y="-228.3" font-family="sans-serif" font-size="14.00">aws_subnet.public&#45;subnet</text>
</g>
<!-- module.public_ec2_module.aws_instance.this&#45;&gt;module.vpc_module.aws_subnet.public&#45;subnet -->
<g id="edge23" class="edge">
<title>module.public_ec2_module.aws_instance.this&#45;&gt;module.vpc_module.aws_subnet.public&#45;subnet</title>
<path fill="none" stroke="black" d="M601.82,-642.87C578.67,-639.21 554.74,-630.81 539,-613 434.26,-494.52 609.03,-376.34 503,-259 496.2,-251.48 487.92,-245.73 478.85,-241.38"/>
<polygon fill="black" stroke="black" points="480.12,-238.11 469.54,-237.47 477.41,-244.57 480.12,-238.11"/>
</g>
<!-- module.public_lb_module.aws_lb.this -->
<g id="node17" class="node">
<title>module.public_lb_module.aws_lb.this</title>
<polygon fill="none" stroke="black" points="718,-387 625,-387 625,-351 718,-351 718,-387"/>
<text text-anchor="middle" x="671.5" y="-365.3" font-family="sans-serif" font-size="14.00">aws_lb.this</text>
</g>
<!-- module.public_lb_module.aws_lb.this&#45;&gt;module.ls_security_group_module.aws_security_group.this -->
<g id="edge24" class="edge">
<title>module.public_lb_module.aws_lb.this&#45;&gt;module.ls_security_group_module.aws_security_group.this</title>
<path fill="none" stroke="black" d="M624.76,-369C584.35,-369 523.98,-369 472.31,-369"/>
<polygon fill="black" stroke="black" points="472.11,-365.5 462.1,-369 472.1,-372.5 472.11,-365.5"/>
</g>
<!-- module.public_lb_module.aws_lb.this&#45;&gt;module.vpc_module.aws_subnet.public&#45;subnet -->
<g id="edge25" class="edge">
<title>module.public_lb_module.aws_lb.this&#45;&gt;module.vpc_module.aws_subnet.public&#45;subnet</title>
<path fill="none" stroke="black" d="M624.98,-368.51C597.39,-366 563.01,-358.66 539,-339 508.83,-314.3 533.43,-283.37 503,-259 495.79,-253.22 487.65,-248.59 479.05,-244.88"/>
<polygon fill="black" stroke="black" points="480.16,-241.55 469.57,-241.21 477.63,-248.08 480.16,-241.55"/>
</g>
<!-- module.public_lb_module.aws_lb_listener.this -->
<g id="node18" class="node">
<title>module.public_lb_module.aws_lb_listener.this</title>
<polygon fill="none" stroke="black" points="1318.5,-387 1168.5,-387 1168.5,-351 1318.5,-351 1318.5,-387"/>
<text text-anchor="middle" x="1243.5" y="-365.3" font-family="sans-serif" font-size="14.00">aws_lb_listener.this</text>
</g>
<!-- module.public_lb_module.aws_lb_target_group.this -->
<g id="node19" class="node">
<title>module.public_lb_module.aws_lb_target_group.this</title>
<polygon fill="none" stroke="black" points="1049,-387 861,-387 861,-351 1049,-351 1049,-387"/>
<text text-anchor="middle" x="955" y="-365.3" font-family="sans-serif" font-size="14.00">aws_lb_target_group.this</text>
</g>
<!-- module.public_lb_module.aws_lb_listener.this&#45;&gt;module.public_lb_module.aws_lb_target_group.this -->
<g id="edge26" class="edge">
<title>module.public_lb_module.aws_lb_listener.this&#45;&gt;module.public_lb_module.aws_lb_target_group.this</title>
<path fill="none" stroke="black" d="M1168.35,-369C1135.08,-369 1095.28,-369 1059.17,-369"/>
<polygon fill="black" stroke="black" points="1059.09,-365.5 1049.09,-369 1059.09,-372.5 1059.09,-365.5"/>
</g>
<!-- module.public_lb_module.aws_lb_target_group.this&#45;&gt;module.public_lb_module.aws_lb.this -->
<g id="edge27" class="edge">
<title>module.public_lb_module.aws_lb_target_group.this&#45;&gt;module.public_lb_module.aws_lb.this</title>
<path fill="none" stroke="black" d="M860.66,-369C816.92,-369 766.26,-369 728.53,-369"/>
<polygon fill="black" stroke="black" points="728.25,-365.5 718.25,-369 728.25,-372.5 728.25,-365.5"/>
</g>
<!-- module.public_lb_module.aws_lb_target_group_attachment.this -->
<g id="node20" class="node">
<title>module.public_lb_module.aws_lb_target_group_attachment.this</title>
<polygon fill="none" stroke="black" points="1381,-441 1106,-441 1106,-405 1381,-405 1381,-441"/>
<text text-anchor="middle" x="1243.5" y="-419.3" font-family="sans-serif" font-size="14.00">aws_lb_target_group_attachment.this</text>
</g>
<!-- module.public_lb_module.aws_lb_target_group_attachment.this&#45;&gt;module.public_ec2_module.aws_instance.this -->
<g id="edge28" class="edge">
<title>module.public_lb_module.aws_lb_target_group_attachment.this&#45;&gt;module.public_ec2_module.aws_instance.this</title>
<path fill="none" stroke="black" d="M1105.59,-405.16C1019.41,-401.79 911.39,-413.09 840,-476 792.77,-517.62 849.24,-569.22 804,-613 789.68,-626.86 770.34,-634.82 750.91,-639.27"/>
<polygon fill="black" stroke="black" points="750.2,-635.85 741.08,-641.24 751.57,-642.71 750.2,-635.85"/>
</g>
<!-- module.public_lb_module.aws_lb_target_group_attachment.this&#45;&gt;module.public_lb_module.aws_lb_target_group.this -->
<g id="edge29" class="edge">
<title>module.public_lb_module.aws_lb_target_group_attachment.this&#45;&gt;module.public_lb_module.aws_lb_target_group.this</title>
<path fill="none" stroke="black" d="M1146.7,-404.94C1118.62,-399.65 1087.79,-393.84 1059.26,-388.46"/>
<polygon fill="black" stroke="black" points="1059.75,-384.99 1049.28,-386.58 1058.45,-391.87 1059.75,-384.99"/>
</g>
<!-- module.vpc_module.aws_eip.this -->
<g id="node21" class="node">
<title>module.vpc_module.aws_eip.this</title>
<polygon fill="none" stroke="black" points="722,-88 621,-88 621,-52 722,-52 722,-88"/>
<text text-anchor="middle" x="671.5" y="-66.3" font-family="sans-serif" font-size="14.00">aws_eip.this</text>
</g>
<!-- module.vpc_module.aws_internet_gateway.this -->
<g id="node22" class="node">
<title>module.vpc_module.aws_internet_gateway.this</title>
<polygon fill="none" stroke="black" points="469,-88 272,-88 272,-52 469,-52 469,-88"/>
<text text-anchor="middle" x="370.5" y="-66.3" font-family="sans-serif" font-size="14.00">aws_internet_gateway.this</text>
</g>
<!-- module.vpc_module.aws_eip.this&#45;&gt;module.vpc_module.aws_internet_gateway.this -->
<g id="edge30" class="edge">
<title>module.vpc_module.aws_eip.this&#45;&gt;module.vpc_module.aws_internet_gateway.this</title>
<path fill="none" stroke="black" d="M620.79,-70C582.34,-70 527.69,-70 479.35,-70"/>
<polygon fill="black" stroke="black" points="479.14,-66.5 469.14,-70 479.14,-73.5 479.14,-66.5"/>
</g>
<!-- module.vpc_module.aws_internet_gateway.this&#45;&gt;module.vpc_module.aws_vpc.this -->
<g id="edge31" class="edge">
<title>module.vpc_module.aws_internet_gateway.this&#45;&gt;module.vpc_module.aws_vpc.this</title>
<path fill="none" stroke="black" d="M271.67,-83.12C259.61,-86.69 247.76,-91.23 237,-97 187.25,-123.68 143.81,-174.47 120.25,-205.57"/>
<polygon fill="black" stroke="black" points="117.3,-203.67 114.14,-213.79 122.92,-207.85 117.3,-203.67"/>
</g>
<!-- module.vpc_module.aws_nat_gateway.this -->
<g id="node23" class="node">
<title>module.vpc_module.aws_nat_gateway.this</title>
<polygon fill="none" stroke="black" points="1038,-216 872,-216 872,-180 1038,-180 1038,-216"/>
<text text-anchor="middle" x="955" y="-194.3" font-family="sans-serif" font-size="14.00">aws_nat_gateway.this</text>
</g>
<!-- module.vpc_module.aws_nat_gateway.this&#45;&gt;module.vpc_module.aws_eip.this -->
<g id="edge32" class="edge">
<title>module.vpc_module.aws_nat_gateway.this&#45;&gt;module.vpc_module.aws_eip.this</title>
<path fill="none" stroke="black" d="M932.71,-179.67C904.97,-156.76 854.08,-118.03 804,-97 781.44,-87.53 755.28,-81.28 732.25,-77.21"/>
<polygon fill="black" stroke="black" points="732.7,-73.74 722.26,-75.55 731.55,-80.65 732.7,-73.74"/>
</g>
<!-- module.vpc_module.aws_nat_gateway.this&#45;&gt;module.vpc_module.aws_subnet.public&#45;subnet -->
<g id="edge33" class="edge">
<title>module.vpc_module.aws_nat_gateway.this&#45;&gt;module.vpc_module.aws_subnet.public&#45;subnet</title>
<path fill="none" stroke="black" d="M871.78,-202.8C769.11,-208.79 593.21,-219.06 479.69,-225.68"/>
<polygon fill="black" stroke="black" points="479.37,-222.2 469.59,-226.27 479.78,-229.19 479.37,-222.2"/>
</g>
<!-- module.vpc_module.aws_route.private&#45;nat&#45;gateway -->
<g id="node24" class="node">
<title>module.vpc_module.aws_route.private&#45;nat&#45;gateway</title>
<polygon fill="none" stroke="black" points="1359,-234 1128,-234 1128,-198 1359,-198 1359,-234"/>
<text text-anchor="middle" x="1243.5" y="-212.3" font-family="sans-serif" font-size="14.00">aws_route.private&#45;nat&#45;gateway</text>
</g>
<!-- module.vpc_module.aws_route.private&#45;nat&#45;gateway&#45;&gt;module.vpc_module.aws_nat_gateway.this -->
<g id="edge34" class="edge">
<title>module.vpc_module.aws_route.private&#45;nat&#45;gateway&#45;&gt;module.vpc_module.aws_nat_gateway.this</title>
<path fill="none" stroke="black" d="M1127.62,-208.78C1101.35,-207.13 1073.75,-205.4 1048.56,-203.82"/>
<polygon fill="black" stroke="black" points="1048.49,-200.3 1038.29,-203.17 1048.05,-207.29 1048.49,-200.3"/>
</g>
<!-- module.vpc_module.aws_route_table.private -->
<g id="node26" class="node">
<title>module.vpc_module.aws_route_table.private</title>
<polygon fill="none" stroke="black" points="461,-196 280,-196 280,-160 461,-160 461,-196"/>
<text text-anchor="middle" x="370.5" y="-174.3" font-family="sans-serif" font-size="14.00">aws_route_table.private</text>
</g>
<!-- module.vpc_module.aws_route.private&#45;nat&#45;gateway&#45;&gt;module.vpc_module.aws_route_table.private -->
<g id="edge35" class="edge">
<title>module.vpc_module.aws_route.private&#45;nat&#45;gateway&#45;&gt;module.vpc_module.aws_route_table.private</title>
<path fill="none" stroke="black" d="M1127.94,-222.82C1108.61,-223.73 1088.74,-224.51 1070,-225 833.91,-231.15 773.66,-231.65 539,-205 517.05,-202.51 493.58,-199.16 471.37,-195.67"/>
<polygon fill="black" stroke="black" points="471.68,-192.17 461.26,-194.05 470.58,-199.08 471.68,-192.17"/>
</g>
<!-- module.vpc_module.aws_route.public&#45;internet&#45;gateway -->
<g id="node25" class="node">
<title>module.vpc_module.aws_route.public&#45;internet&#45;gateway</title>
<polygon fill="none" stroke="black" points="799.5,-142 543.5,-142 543.5,-106 799.5,-106 799.5,-142"/>
<text text-anchor="middle" x="671.5" y="-120.3" font-family="sans-serif" font-size="14.00">aws_route.public&#45;internet&#45;gateway</text>
</g>
<!-- module.vpc_module.aws_route.public&#45;internet&#45;gateway&#45;&gt;module.vpc_module.aws_internet_gateway.this -->
<g id="edge36" class="edge">
<title>module.vpc_module.aws_route.public&#45;internet&#45;gateway&#45;&gt;module.vpc_module.aws_internet_gateway.this</title>
<path fill="none" stroke="black" d="M570.52,-105.94C541.16,-100.64 508.93,-94.82 479.11,-89.43"/>
<polygon fill="black" stroke="black" points="479.56,-85.96 469.1,-87.63 478.32,-92.85 479.56,-85.96"/>
</g>
<!-- module.vpc_module.aws_route_table.public -->
<g id="node27" class="node">
<title>module.vpc_module.aws_route_table.public</title>
<polygon fill="none" stroke="black" points="457.5,-142 283.5,-142 283.5,-106 457.5,-106 457.5,-142"/>
<text text-anchor="middle" x="370.5" y="-120.3" font-family="sans-serif" font-size="14.00">aws_route_table.public</text>
</g>
<!-- module.vpc_module.aws_route.public&#45;internet&#45;gateway&#45;&gt;module.vpc_module.aws_route_table.public -->
<g id="edge37" class="edge">
<title>module.vpc_module.aws_route.public&#45;internet&#45;gateway&#45;&gt;module.vpc_module.aws_route_table.public</title>
<path fill="none" stroke="black" d="M543.26,-124C517.95,-124 491.77,-124 467.7,-124"/>
<polygon fill="black" stroke="black" points="467.53,-120.5 457.53,-124 467.53,-127.5 467.53,-120.5"/>
</g>
<!-- module.vpc_module.aws_route_table.private&#45;&gt;module.vpc_module.aws_vpc.this -->
<g id="edge38" class="edge">
<title>module.vpc_module.aws_route_table.private&#45;&gt;module.vpc_module.aws_vpc.this</title>
<path fill="none" stroke="black" d="M279.89,-196.06C241.52,-203.79 197.69,-212.62 163.07,-219.59"/>
<polygon fill="black" stroke="black" points="162.22,-216.2 153.1,-221.6 163.6,-223.06 162.22,-216.2"/>
</g>
<!-- module.vpc_module.aws_route_table.public&#45;&gt;module.vpc_module.aws_vpc.this -->
<g id="edge39" class="edge">
<title>module.vpc_module.aws_route_table.public&#45;&gt;module.vpc_module.aws_vpc.this</title>
<path fill="none" stroke="black" d="M283.46,-137.12C267.73,-140.75 251.67,-145.31 237,-151 199.81,-165.42 161.11,-189.63 134.64,-207.83"/>
<polygon fill="black" stroke="black" points="132.35,-205.16 126.15,-213.75 136.35,-210.9 132.35,-205.16"/>
</g>
<!-- module.vpc_module.aws_route_table_association.private -->
<g id="node28" class="node">
<title>module.vpc_module.aws_route_table_association.private</title>
<polygon fill="none" stroke="black" points="804,-297 539,-297 539,-261 804,-261 804,-297"/>
<text text-anchor="middle" x="671.5" y="-275.3" font-family="sans-serif" font-size="14.00">aws_route_table_association.private</text>
</g>
<!-- module.vpc_module.aws_route_table_association.private&#45;&gt;module.vpc_module.aws_route_table.private -->
<g id="edge40" class="edge">
<title>module.vpc_module.aws_route_table_association.private&#45;&gt;module.vpc_module.aws_route_table.private</title>
<path fill="none" stroke="black" d="M587.28,-260.95C570.67,-255.54 553.79,-248.66 539,-240 519.74,-228.72 522.72,-215.44 503,-205 493.04,-199.73 482.16,-195.49 471.05,-192.07"/>
<polygon fill="black" stroke="black" points="471.82,-188.65 461.25,-189.28 469.91,-195.38 471.82,-188.65"/>
</g>
<!-- module.vpc_module.aws_route_table_association.private&#45;&gt;module.vpc_module.aws_subnet.private&#45;subnet -->
<g id="edge41" class="edge">
<title>module.vpc_module.aws_route_table_association.private&#45;&gt;module.vpc_module.aws_subnet.private&#45;subnet</title>
<path fill="none" stroke="black" d="M538.92,-282.08C520.28,-282.52 501.26,-282.96 483.05,-283.39"/>
<polygon fill="black" stroke="black" points="482.94,-279.89 473.02,-283.62 483.1,-286.89 482.94,-279.89"/>
</g>
<!-- module.vpc_module.aws_route_table_association.public -->
<g id="node29" class="node">
<title>module.vpc_module.aws_route_table_association.public</title>
<polygon fill="none" stroke="black" points="800.5,-196 542.5,-196 542.5,-160 800.5,-160 800.5,-196"/>
<text text-anchor="middle" x="671.5" y="-174.3" font-family="sans-serif" font-size="14.00">aws_route_table_association.public</text>
</g>
<!-- module.vpc_module.aws_route_table_association.public&#45;&gt;module.vpc_module.aws_route_table.public -->
<g id="edge42" class="edge">
<title>module.vpc_module.aws_route_table_association.public&#45;&gt;module.vpc_module.aws_route_table.public</title>
<path fill="none" stroke="black" d="M570.52,-159.94C537.44,-153.97 500.72,-147.34 467.91,-141.41"/>
<polygon fill="black" stroke="black" points="468.33,-137.93 457.87,-139.6 467.09,-144.82 468.33,-137.93"/>
</g>
<!-- module.vpc_module.aws_route_table_association.public&#45;&gt;module.vpc_module.aws_subnet.public&#45;subnet -->
<g id="edge43" class="edge">
<title>module.vpc_module.aws_route_table_association.public&#45;&gt;module.vpc_module.aws_subnet.public&#45;subnet</title>
<path fill="none" stroke="black" d="M570.52,-196.06C541.31,-201.33 509.26,-207.12 479.57,-212.48"/>
<polygon fill="black" stroke="black" points="478.82,-209.06 469.61,-214.28 480.07,-215.95 478.82,-209.06"/>
</g>
<!-- module.vpc_module.aws_subnet.private&#45;subnet&#45;&gt;module.vpc_module.aws_vpc.this -->
<g id="edge44" class="edge">
<title>module.vpc_module.aws_subnet.private&#45;subnet&#45;&gt;module.vpc_module.aws_vpc.this</title>
<path fill="none" stroke="black" d="M279.89,-267.94C241.52,-260.21 197.69,-251.38 163.07,-244.41"/>
<polygon fill="black" stroke="black" points="163.6,-240.94 153.1,-242.4 162.22,-247.8 163.6,-240.94"/>
</g>
<!-- module.vpc_module.aws_subnet.public&#45;subnet&#45;&gt;module.vpc_module.aws_vpc.this -->
<g id="edge45" class="edge">
<title>module.vpc_module.aws_subnet.public&#45;subnet&#45;&gt;module.vpc_module.aws_vpc.this</title>
<path fill="none" stroke="black" d="M271.23,-232C235.1,-232 195.24,-232 163.23,-232"/>
<polygon fill="black" stroke="black" points="163.12,-228.5 153.12,-232 163.12,-235.5 163.12,-228.5"/>
</g>
</g>
</svg>
